<svg id="레이어_1" data-name="레이어 1" xmlns="http://www.w3.org/2000/svg" viewBox="0 0 55.38 93.2"><defs><style>.cls-1{fill:#00145a;}.cls-2{fill:#fff;}.cls-3{fill:#e6002d;}</style></defs><path class="cls-1" d="M4.12,74.29H5.2v5.32H4.12Zm4.11,5.32H7l-1.7-2.67,1.78-2.65h1L6.42,76.81Z"/><path class="cls-1" d="M8.24,77.7a1.91,1.91,0,1,1,1.9,2,1.86,1.86,0,0,1-1.9-2m2.76,0c0-.81-.34-1.25-.86-1.25s-.86.44-.86,1.25S9.62,79,10.14,79s.86-.44.86-1.25"/><path class="cls-1" d="M14.94,76.64a1.49,1.49,0,0,0-1.2.83v2.14h-1V75.8h.76l.19.76A1.7,1.7,0,0,1,15,75.7a1.82,1.82,0,0,1,.37,0v1a1.25,1.25,0,0,0-.42-.06"/><path class="cls-1" d="M17.45,75.69a1.79,1.79,0,0,1,1.84,2v.12L16.68,78a.91.91,0,0,0,1,.94,2.29,2.29,0,0,0,1.44-.59v.82a2.71,2.71,0,0,1-1.63.54,2,2,0,0,1,0-4m0,.74c-.46,0-.72.31-.76.91l1.52-.1c0-.5-.32-.81-.76-.81"/><path class="cls-1" d="M19.76,78.45c0-.78.59-1.24,1.58-1.24h.75V77c0-.37-.22-.57-.65-.57a3.14,3.14,0,0,0-1.33.41v-.74a3.15,3.15,0,0,1,1.55-.42c.87,0,1.47.41,1.47,1.26v2.66h-.81l-.15-.53a1.41,1.41,0,0,1-1.16.6,1.16,1.16,0,0,1-1.25-1.23m2.33-.19v-.4h-.63c-.42,0-.65.2-.65.56a.45.45,0,0,0,.46.47,1,1,0,0,0,.82-.63"/><polygon class="cls-1" points="26.8 76.54 28.75 76.54 28.62 77.32 26.8 77.32 26.8 79.61 25.72 79.61 25.72 74.29 28.98 74.29 28.85 75.07 26.8 75.07 26.8 76.54"/><path class="cls-1" d="M29.16,77.7a1.91,1.91,0,1,1,1.9,2,1.86,1.86,0,0,1-1.9-2m2.76,0c0-.81-.34-1.25-.86-1.25s-.85.44-.85,1.25.33,1.25.85,1.25.86-.44.86-1.25"/><path class="cls-1" d="M33.42,77.7a1.91,1.91,0,1,1,1.91,2,1.87,1.87,0,0,1-1.91-2m2.77,0c0-.81-.34-1.25-.86-1.25s-.86.44-.86,1.25.34,1.25.86,1.25.86-.44.86-1.25"/><path class="cls-1" d="M38.13,78.56v-2h-.64v-.14l1.56-1.67h.12v1h.95l-.14.76h-.81v2c0,.26.14.38.34.38a.89.89,0,0,0,.65-.28v.71a1.28,1.28,0,0,1-.89.35,1,1,0,0,1-1.14-1.15"/><path class="cls-1" d="M41.7,79.28l-.23.33h-.73V74.14l1-.22v2.46a1.58,1.58,0,0,1,1.2-.69c.81,0,1.44.62,1.44,2s-.69,2-1.68,2a1.5,1.5,0,0,1-1-.41m1.67-1.65c0-.69-.24-1.08-.63-1.08s-.74.43-1,.79v1.25a1.06,1.06,0,0,0,.75.31c.57,0,.84-.49.84-1.27"/><path class="cls-1" d="M44.9,78.45c0-.78.59-1.24,1.57-1.24h.75V77c0-.37-.21-.57-.64-.57a3.14,3.14,0,0,0-1.34.41v-.74a3.18,3.18,0,0,1,1.55-.42c.88,0,1.47.41,1.47,1.26v2.66h-.81l-.15-.53a1.4,1.4,0,0,1-1.16.6,1.15,1.15,0,0,1-1.24-1.23m2.32-.19v-.4h-.63c-.42,0-.65.2-.65.56a.45.45,0,0,0,.46.47,1,1,0,0,0,.82-.63"/><polygon class="cls-1" points="49.06 79.61 49.06 74.14 50.1 73.92 50.1 79.61 49.06 79.61"/><polygon class="cls-1" points="50.95 79.61 50.95 74.14 51.99 73.92 51.99 79.61 50.95 79.61"/><path class="cls-1" d="M10.71,83.71c-.09.35-.2.75-.34,1.18l-.36,1h1.22l-.14.77H9.76l-.38,1.12h-1l1.83-5.31h1.05l1.84,5.31H12l-1-2.94c-.14-.43-.25-.83-.34-1.18"/><path class="cls-1" d="M15,84.66c-.37,0-.55.11-.55.3s.26.36.94.55c.88.25,1.26.65,1.26,1.22,0,.74-.65,1.21-1.56,1.21a2.54,2.54,0,0,1-1.63-.54v-.84a2.63,2.63,0,0,0,1.59.64c.41,0,.65-.13.65-.37s-.25-.34-.95-.53-1.25-.62-1.25-1.25.56-1.13,1.51-1.13a2.45,2.45,0,0,1,1.43.42v.83A2.46,2.46,0,0,0,15,84.66"/><path class="cls-1" d="M18.61,84.66c-.37,0-.56.11-.56.3s.27.36.94.55c.88.25,1.27.65,1.27,1.22,0,.74-.65,1.21-1.56,1.21a2.49,2.49,0,0,1-1.63-.54v-.84a2.58,2.58,0,0,0,1.59.64c.4,0,.65-.13.65-.37s-.25-.34-.95-.53-1.25-.62-1.25-1.25.55-1.13,1.51-1.13a2.4,2.4,0,0,1,1.42.42v.83a2.4,2.4,0,0,0-1.43-.51"/><path class="cls-1" d="M20.68,85.93a1.91,1.91,0,1,1,1.91,2,1.87,1.87,0,0,1-1.91-2m2.76,0c0-.81-.33-1.25-.85-1.25s-.86.44-.86,1.25.34,1.25.86,1.25.85-.44.85-1.25"/><path class="cls-1" d="M27,87.15a1.52,1.52,0,0,0,1.2-.63v.9a2.06,2.06,0,0,1-1.47.52,1.77,1.77,0,0,1-1.82-2,1.86,1.86,0,0,1,1.92-2,2,2,0,0,1,1.22.32v.83A1.48,1.48,0,0,0,27,84.68c-.66,0-1,.43-1,1.25s.41,1.22,1,1.22"/><path class="cls-1" d="M29.9,83.3H28.83v-.93l1.07-.22ZM28.84,84h1v3.82h-1Z"/><path class="cls-1" d="M30.56,86.68c0-.78.59-1.24,1.57-1.24h.75v-.2c0-.37-.21-.57-.64-.57a3.14,3.14,0,0,0-1.34.41v-.74a3.19,3.19,0,0,1,1.56-.42c.87,0,1.46.41,1.46,1.26v2.65h-.81L33,87.31a1.38,1.38,0,0,1-1.16.6,1.15,1.15,0,0,1-1.24-1.23m2.32-.19v-.4h-.63c-.42,0-.65.2-.65.56a.45.45,0,0,0,.47.47,1,1,0,0,0,.81-.63"/><path class="cls-1" d="M35,86.79v-2H34.4v-.14L36,83h.11v1h1l-.14.77h-.82v2c0,.26.14.38.34.38a.93.93,0,0,0,.66-.28v.71a1.3,1.3,0,0,1-.89.35A1.05,1.05,0,0,1,35,86.79"/><path class="cls-1" d="M38.71,83.3H37.64v-.93l1.07-.22ZM37.65,84H38.7v3.82H37.65Z"/><path class="cls-1" d="M39.35,85.93a1.91,1.91,0,1,1,1.9,2,1.86,1.86,0,0,1-1.9-2m2.76,0c0-.81-.34-1.25-.86-1.25s-.85.44-.85,1.25.33,1.25.85,1.25.86-.44.86-1.25"/><path class="cls-1" d="M45.9,84.8c-.38,0-.74.4-1,.89v2.14h-1V84h.76l.2.79a1.75,1.75,0,0,1,1.44-.88,1.09,1.09,0,0,1,1.12,1.24v2.66h-1V85.32c0-.35-.11-.52-.39-.52"/><polygon class="cls-1" points="12.85 7 43.26 7 43.26 22.49 44.88 23.77 44.88 5.39 11.24 5.39 11.24 23.77 12.85 22.49 12.85 7"/><polygon class="cls-1" points="43.26 55.72 12.85 55.72 12.85 40.3 11.24 39.03 11.24 57.34 44.88 57.34 44.88 39.03 43.26 40.3 43.26 55.72"/><polygon class="cls-2" points="46.88 25.34 43.27 22.49 43.27 7 12.85 7 12.85 22.49 9.24 25.34 11.19 31.78 9.33 37.54 12.85 40.3 12.85 55.72 43.27 55.72 43.27 40.3 46.78 37.54 44.93 31.78 46.88 25.34"/><polygon class="cls-3" points="15.2 9.35 40.92 9.35 40.92 20.64 41.83 21.36 41.83 8.44 14.29 8.44 14.29 21.36 15.2 20.64 15.2 9.35"/><polygon class="cls-3" points="40.92 53.37 15.2 53.37 15.2 42.14 14.29 41.43 14.29 54.28 41.83 54.28 41.83 41.43 40.92 42.14 40.92 53.37"/><polygon class="cls-1" points="28.06 29.38 25.92 17.18 17.08 20.22 26.68 15.28 28.06 24.18 29.44 15.28 39.03 20.22 30.2 17.18 28.06 29.38"/><polygon class="cls-1" points="28.06 20.58 27.37 13.6 20.6 17.45 28.06 11.56 35.52 17.45 28.75 13.6 28.06 20.58"/><polygon class="cls-1" points="32.43 20.23 29.19 27.81 31.24 18.65 32.43 20.23"/><polygon class="cls-1" points="24.88 18.65 26.92 27.81 23.68 20.23 24.88 18.65"/><polygon class="cls-1" points="42.58 31.81 44.33 26.01 41.53 22.19 45.91 25.64 44.05 31.79 45.8 37.24 42.1 40.15 44.23 36.93 42.58 31.81"/><polygon class="cls-1" points="34.23 32.38 40.97 34.65 40.08 31.77 41.95 25.97 41.45 23.99 43 26.28 41.25 31.7 42.84 36.77 40.74 40.42 41.39 36.44 34.23 32.38"/><polygon class="cls-1" points="35.15 31.64 37.63 31.5 40.56 26.95 38.79 31.93 39.09 32.92 35.15 31.64"/><polygon class="cls-1" points="37.71 27.68 32.89 28.3 31.68 32.62 32.09 26.99 40.88 24.36 38.12 26.07 37.71 27.68"/><polygon class="cls-1" points="10.21 25.64 14.58 22.19 11.79 26.01 13.54 31.81 11.89 36.93 14.02 40.15 10.31 37.24 12.06 31.79 10.21 25.64"/><polygon class="cls-1" points="13.27 36.77 14.86 31.7 13.12 26.28 14.66 23.99 14.17 25.97 16.03 31.77 15.15 34.65 21.89 32.38 14.72 36.44 15.38 40.42 13.27 36.77"/><polygon class="cls-1" points="18.48 31.5 20.97 31.64 17.02 32.92 17.33 31.93 15.55 26.95 18.48 31.5"/><polygon class="cls-1" points="24.03 26.99 24.44 32.62 23.22 28.29 18.41 27.68 18 26.07 15.24 24.36 24.03 26.99"/><polygon class="cls-1" points="31.13 47.07 33.78 45.03 33.32 47.03 28.06 51.16 22.79 47.03 22.34 45.03 24.98 47.07 31.13 47.07"/><polygon class="cls-1" points="31.94 35.85 28.23 39.01 34.69 42.17 37.77 40.04 38.19 37 34.98 33.84 39.84 37.04 39.23 41.13 35.32 44.13 34.58 45.8 33.86 43.83 28.06 41.46 22.25 43.83 21.53 45.8 20.79 44.13 16.89 41.13 16.27 37.04 21.14 33.84 17.93 37 18.34 40.04 21.42 42.17 27.88 39.01 24.18 35.85 23.07 34.03 24.97 35.17 31.15 35.17 33.04 34.03 31.94 35.85"/><rect class="cls-1" x="19.4" y="62.39" width="1.63" height="7.76"/><polygon class="cls-1" points="25.31 62.44 25.35 62.39 23.75 62.39 21.16 66.24 21.14 66.26 23.61 70.14 23.62 70.15 25.43 70.15 22.8 66.07 25.31 62.44"/><polygon class="cls-1" points="30.71 65.53 28.02 65.53 28.02 63.78 31.14 63.78 31.62 62.39 26.39 62.39 26.39 70.15 28.02 70.15 28.02 66.85 30.25 66.85 30.71 65.53"/><path class="cls-1" d="M34.87,62.41v0H33.28L30.63,70.1l0,.05h1.45l.55-1.62h1.94l.2-1.18H33l.5-1.48c.2-.59.35-1.14.46-1.58.11.44.26,1,.46,1.58l1.43,4.26v0h1.68Z"/></svg>